<svg xmlns="http://www.w3.org/2000/svg" width="292" height="101" fill="none"><g clip-path="url(#a)"><path fill="#fff" d="m0 18.155 13.182-.043v17.415l.952-.414.953-.414a26.7 26.7 0 0 1 9.132-1.61c3.115 0 6.2.537 9.175 1.61a24 24 0 0 1 7.812 4.746 22.1 22.1 0 0 1 5.332 7.222q1.943 4.17 1.943 8.955c0 3.19-.635 6.271-1.9 8.997-1.27 2.725-3.06 5.143-5.375 7.264-2.34 2.117-4.947 3.702-7.812 4.746-2.895 1.128-5.95 1.69-9.175 1.69q-6.323 0-11.942-2.97c-3.746-1.953-6.725-4.65-8.925-8.089Q.037 62.19 0 55.913zM16.487 63.22q3.265 3.177 7.728 3.178c2.975 0 5.594-1.06 7.77-3.178q3.305-3.175 3.305-7.594a9.65 9.65 0 0 0-1.528-5.282q-1.53-2.434-4.092-3.88a10.8 10.8 0 0 0-5.455-1.445c-1.955 0-3.707.482-5.413 1.445q-2.564 1.446-4.092 3.88-1.529 2.393-1.528 5.282-.001 4.419 3.305 7.594m46.869-36.94a7.1 7.1 0 0 1-2.48 2.477 6.6 6.6 0 0 1-3.47.951c-1.266 0-2.413-.304-3.432-.908a7 7 0 0 1-2.48-2.52 6.9 6.9 0 0 1-.953-3.507 6.86 6.86 0 0 1 .91-3.465c.66-1.073 1.503-1.91 2.523-2.519q1.528-.907 3.432-.908 1.904.001 3.47.908 1.529.908 2.48 2.52.909 1.57.91 3.464c0 1.264-.305 2.49-.91 3.508m.867 8.461v42.302H51.041v-42.26zM75.048 45.97h-8.722l2.975-11.31h5.743V18.4l13.182.084V34.66h8.76l-2.932 11.308h-5.828v13.993q-.001 5.611 7.025 5.612 2.271 0 3.47-.537l-3.8 13.121c-.69.11-1.362.165-2.027.165q-5.911-.001-9.835-1.897-3.967-1.898-5.992-5.735-2.026-3.797-2.027-9.698V45.969zm25.747 30.993V18.442l13.225-.043v32.354h.165l13.677-16.012h15.497l-15.29 18.117 17.977 24.1h-16.487L114.02 56.243v20.715h-13.225zm60.131-50.683a7.1 7.1 0 0 1-2.48 2.477c-1.045.634-2.205.951-3.47.951s-2.412-.304-3.432-.908a7 7 0 0 1-2.48-2.52 6.9 6.9 0 0 1-.952-3.507c0-1.238.305-2.421.91-3.465.66-1.073 1.502-1.91 2.522-2.519q1.529-.907 3.432-.908 1.903.001 3.47.908 1.529.908 2.48 2.52.909 1.57.91 3.464c0 1.264-.305 2.49-.91 3.508m.868 8.461v42.302h-13.183v-42.26zm20.376 10.234q-5.04.209-5.04 7.015v24.967h-13.225V51.991q.001-18.034 18.265-18.94h.745c12.179.604 18.264 6.918 18.264 18.94v24.967h-13.224V51.991q0-6.806-5.04-7.015z"/><path fill="#fff" d="M182.17 44.976q-5.04.209-5.04 7.015v24.967h-13.225V51.991q.001-18.034 18.265-18.94h.745c12.179.604 18.264 6.918 18.264 18.94v24.967h-13.224V51.991q0-6.806-5.04-7.015zm67.24 10.979-.042 22.368v3.056c0 5.421-1.93 10.053-5.785 13.907-1.79 1.788-4.19 3.203-7.19 4.251-2.81.989-5.595 1.488-8.35 1.488h-2.314q-9.422-.209-15.002-5.735c-2.506-2.556-4.025-4.8-4.545-6.727l12.606-7.307q.21 3.257 2.603 5.532 2.399 2.27 5.705 2.269a8.16 8.16 0 0 0 4.752-1.487q2.108-1.446 3.017-3.715l.043-.165.084-.207.165-.579q.164-.495.208-.989v-.122l.042-.123.042-.165v-.25h.043v-4.33l-.33.164-.331.123a22.7 22.7 0 0 1-8.679 1.69q-6.036-.001-11.282-3.013-5.25-2.929-8.43-8.211-3.181-5.282-3.183-11.76-.001-4.914 1.858-9.078 1.778-4.125 5.04-7.345c2.12-2.037 4.575-3.617 7.355-4.745q4.214-1.692 8.638-1.69 7.686-.002 11.405 1.981 11.86 5.077 11.861 20.923zm-29.961 7.307q3.264 3.177 7.52 3.178c2.835 0 5.387-1.06 7.562-3.178 2.15-2.092 3.225-4.606 3.225-7.552q.001-2.806-1.49-5.282a10.7 10.7 0 0 0-3.969-3.88q-2.521-1.402-5.333-1.403-2.81.002-5.247 1.403c-1.655.934-2.988 2.227-4.008 3.88q-1.487 2.476-1.489 5.282c0 2.946 1.074 5.46 3.224 7.552zm54.176 1.771h18.557L289 76.959h-37.524l18.679-31.2h-15.29l2.645-11.06h34.097L273.63 65.033z"/><path fill="#FFE001" d="m199.51 12.208-.293 6.42a1.1 1.1 0 0 0 .546 1.118l5.474 3.084q.228.13.49.145a1.09 1.09 0 0 0 .906-.4c.111-.133.185-.289.225-.458l1.043-6.107a1.096 1.096 0 0 0-.591-1.232l-6.228-3.41a1.094 1.094 0 0 0-1.384.36 1.1 1.1 0 0 0-.188.48M236.2 5.12l2.675 5.863c.108.191.156.407.141.627s-.098.426-.236.597l-3.928 4.904a1.1 1.1 0 0 1-.402.317 1.1 1.1 0 0 1-.5.1 1.1 1.1 0 0 1-.875-.475l-3.249-5.277a1.1 1.1 0 0 1-.195-.7c.015-.25.116-.485.283-.669l4.506-5.48a1.1 1.1 0 0 1 1.42-.183c.147.095.268.223.355.372z"/><path fill="#FFE001" d="M250.052 5.417c-10.181 5.07-16.166 15.474-16.166 15.474C222.198.851 217.21.309 216.312.404l-.106.02c-.871.244-5.295 2.607-8.66 25.547 0 0-9.441-7.427-20.777-8.338 0 0-4.345-.46-2.766 2.06 0 0 12.609 14.636 18.91 22.078 0 0 1.2.956 2.044-.01.575-.657 6.284-9.104 17.147-10.878l.106-.02c10.743-2.4 19.192 3.313 19.971 3.706 1.149.584 1.904-.752 1.904-.752 3.069-9.25 9.305-27.53 9.305-27.53.52-2.923-3.338-.87-3.338-.87"/></g><defs><clipPath id="a"><path fill="#fff" d="M0 0h292v101H0z"/></clipPath></defs></svg>