<svg width="130" height="57" viewBox="0 0 130 57" fill="none" xmlns="http://www.w3.org/2000/svg">
<path fill-rule="evenodd" clip-rule="evenodd" d="M61.4514 45.5V56.2175H58.937V45.5H61.4514ZM88.9746 54.1173V56.2174H87.6954C86.7837 56.2174 86.073 56.0001 85.5633 55.5656C85.0536 55.1215 84.7987 54.4022 84.7987 53.4077V50.1924H83.7988V48.1358H84.7987V46.1661H87.3131V48.1358H88.9599V50.1924H87.3131V53.4366C87.3131 53.678 87.3719 53.8518 87.4895 53.958C87.6072 54.0642 87.8032 54.1173 88.0777 54.1173H88.9746ZM99.596 56.3332C98.8804 56.3332 98.2432 56.2125 97.6845 55.9711C97.1257 55.7297 96.6846 55.4015 96.3611 54.9863C96.0376 54.5614 95.8563 54.0883 95.8171 53.5669H98.302C98.3314 53.8469 98.4638 54.0738 98.699 54.2476C98.9343 54.4214 99.2235 54.5083 99.5666 54.5083C99.8803 54.5083 100.12 54.4504 100.287 54.3345C100.464 54.209 100.552 54.0497 100.552 53.8566C100.552 53.6249 100.429 53.4559 100.184 53.3497C99.9391 53.2338 99.5421 53.1083 98.9931 52.9731C98.405 52.838 97.9148 52.698 97.5227 52.5531C97.1306 52.3986 96.7924 52.1621 96.5082 51.8435C96.2239 51.5152 96.0817 51.0759 96.0817 50.5255C96.0817 50.062 96.2092 49.642 96.464 49.2655C96.7287 48.8793 97.111 48.5751 97.611 48.353C98.1207 48.131 98.7236 48.0199 99.4195 48.0199C100.449 48.0199 101.258 48.271 101.846 48.773C102.444 49.2751 102.787 49.9413 102.875 50.7717H100.552C100.513 50.4917 100.385 50.2696 100.169 50.1055C99.9636 49.9413 99.6891 49.8593 99.346 49.8593C99.0519 49.8593 98.8265 49.9172 98.6696 50.0331C98.5128 50.1393 98.4344 50.2889 98.4344 50.482C98.4344 50.7138 98.5569 50.8876 98.802 51.0034C99.0568 51.1193 99.449 51.2352 99.9783 51.351C100.586 51.5055 101.081 51.66 101.463 51.8145C101.846 51.9593 102.179 52.2007 102.463 52.5386C102.757 52.8669 102.909 53.3111 102.919 53.8711C102.919 54.3442 102.782 54.769 102.507 55.1456C102.243 55.5125 101.856 55.8022 101.346 56.0146C100.846 56.227 100.263 56.3332 99.596 56.3332ZM70.7161 55.8263C71.3631 56.1642 72.0885 56.3332 72.8923 56.3332C73.6961 56.3332 74.4215 56.1642 75.0685 55.8263C75.7253 55.4884 76.2399 55.0056 76.6124 54.378C76.9947 53.7407 77.1859 53.0069 77.1859 52.1766C77.1859 51.3462 76.9996 50.6172 76.6271 49.9896C76.2546 49.3524 75.7449 48.8648 75.0979 48.5268C74.4509 48.1889 73.7255 48.0199 72.9217 48.0199C72.1179 48.0199 71.3925 48.1889 70.7455 48.5268C70.0985 48.8648 69.5888 49.3524 69.2163 49.9896C68.8438 50.6172 68.6576 51.3462 68.6576 52.1766C68.6576 53.0166 68.8389 53.7504 69.2016 54.378C69.5741 55.0056 70.0789 55.4884 70.7161 55.8263ZM74.1127 53.6683C73.7794 54.0159 73.3726 54.1897 72.8923 54.1897C72.412 54.1897 72.0101 54.0159 71.6866 53.6683C71.3729 53.3207 71.216 52.8235 71.216 52.1766C71.216 51.52 71.3778 51.0227 71.7013 50.6848C72.0248 50.3372 72.4316 50.1634 72.9217 50.1634C73.402 50.1634 73.804 50.3372 74.1274 50.6848C74.4607 51.0324 74.6274 51.5297 74.6274 52.1766C74.6274 52.8235 74.4558 53.3207 74.1127 53.6683ZM46.2854 55.9711C46.8441 56.2125 47.4813 56.3332 48.1969 56.3332C48.8635 56.3332 49.4467 56.227 49.9467 56.0146C50.4564 55.8022 50.8436 55.5125 51.1083 55.1456C51.3828 54.769 51.52 54.3442 51.52 53.8711C51.5102 53.3111 51.3583 52.8669 51.0642 52.5386C50.7799 52.2007 50.4466 51.9593 50.0643 51.8145C49.682 51.66 49.187 51.5055 48.5792 51.351C48.0499 51.2352 47.6578 51.1193 47.4029 51.0034C47.1578 50.8876 47.0353 50.7138 47.0353 50.482C47.0353 50.2889 47.1137 50.1393 47.2705 50.0331C47.4274 49.9172 47.6528 49.8593 47.9469 49.8593C48.29 49.8593 48.5645 49.9413 48.7704 50.1055C48.986 50.2696 49.1134 50.4917 49.1527 50.7717H51.4759C51.3877 49.9413 51.0446 49.2751 50.4466 48.773C49.8584 48.271 49.0497 48.0199 48.0204 48.0199C47.3245 48.0199 46.7216 48.131 46.2119 48.353C45.7119 48.5751 45.3296 48.8793 45.0649 49.2655C44.8101 49.642 44.6826 50.062 44.6826 50.5255C44.6826 51.0759 44.8248 51.5152 45.1091 51.8435C45.3933 52.1621 45.7315 52.3986 46.1236 52.5531C46.5157 52.698 47.0059 52.838 47.594 52.9731C48.143 53.1083 48.54 53.2338 48.7851 53.3497C49.0301 53.4559 49.1527 53.6249 49.1527 53.8566C49.1527 54.0497 49.0644 54.209 48.888 54.3345C48.7213 54.4504 48.4812 54.5083 48.1675 54.5083C47.8244 54.5083 47.5352 54.4214 47.3 54.2476C47.0647 54.0738 46.9324 53.8469 46.9029 53.5669H44.418C44.4572 54.0883 44.6385 54.5614 44.962 54.9863C45.2855 55.4015 45.7266 55.7297 46.2854 55.9711Z" fill="#00FFB2"/>
<mask id="mask0_3860_58716" style="mask-type:alpha" maskUnits="userSpaceOnUse" x="0" y="0" width="130" height="46">
<rect width="130" height="45.5" fill="#D9D9D9"/>
</mask>
<g mask="url(#mask0_3860_58716)">
<path fill-rule="evenodd" clip-rule="evenodd" d="M126.148 3.02428C123.789 0.9806 120.058 -0.15254 116.627 0.147669C116.411 0.166527 116.187 0.186138 115.973 0.222239C112.188 0.753181 108.678 2.52855 105.801 5.19541C103.74 3.38624 100.861 2.55217 97.5501 2.84182C97.2742 2.86596 96.9897 2.89085 96.6988 2.94237C92.9135 3.47738 88.2492 5.52353 85.7319 8.5671C85.7004 8.60461 85.6431 8.64437 85.5858 8.68414C83.2122 6.67646 79.5097 5.56692 76.1214 5.86336C75.9059 5.88222 75.6817 5.90183 75.4677 5.93793C71.6915 6.46812 68.1971 8.23336 65.3274 10.8822C63.5432 9.05753 60.919 8.15773 58.0652 8.4074C57.8669 8.42475 57.6686 8.4421 57.4632 8.47745C56.0898 8.66711 54.986 9.05906 54.0932 9.38042C53.4868 9.59854 52.9894 9.77236 52.4099 9.90125C51.6053 9.64152 50.5638 9.45463 49.262 9.56853L49.1844 9.57532C48.8331 8.9371 48.416 8.3394 47.9328 7.78222C45.6444 5.15895 42.19 3.90608 38.1982 4.25532C37.9223 4.27946 37.6378 4.30435 37.3555 4.35511C36.523 4.47138 35.7059 4.6645 34.8997 4.88272C27.3554 6.33334 6.02385 14.4373 -0.0840973 19.0983C8.07328 18.0024 15.7548 19.5109 13.1958 25.7119C13.1651 25.7172 13.0836 25.7264 12.9585 25.7406C11.8305 25.8681 7.1576 26.3963 4.17543 28.0649C8.47805 28.0749 12.897 35.9159 13.1831 36.4317C13.1876 36.4408 13.1924 36.4496 13.1978 36.4584L13.1831 36.4317C13.1773 36.4202 13.172 36.4084 13.1665 36.396C13.16 36.3816 13.1531 36.3665 13.1449 36.3501C15.2259 40.0774 19.2933 43.075 23.6058 44.5047C24.8102 44.9641 26.1209 45.249 27.5113 45.3533C27.7991 45.3851 28.0932 45.4011 28.3806 45.4167L28.3807 45.4167L28.438 45.4199C29.0296 45.4289 29.6361 45.4106 30.2483 45.3571C30.5845 45.3276 30.9294 45.2975 31.2892 45.2399C37.374 44.3861 42.8877 41.671 47.2546 37.4664C47.6119 38.1736 48.0587 38.8121 48.6037 39.3813C49.8264 40.647 52.0641 42.0931 55.8058 41.7658C56.0386 41.7454 56.2887 41.7235 56.5372 41.6844C58.6483 41.3868 61.2581 40.533 63.7187 38.3716C65.714 39.4307 68.1171 39.8894 70.7812 39.6563L70.7813 39.6563C71.0658 39.6314 71.3675 39.605 71.667 39.5528C76.2757 38.9063 80.1308 36.597 83.0445 33.4577C85.5071 35.7878 88.991 36.8817 92.9742 36.5332C93.2932 36.5053 93.6122 36.4774 93.9376 36.4228C97.8165 35.875 101.139 34.5244 103.798 32.45C105.868 33.6676 108.426 34.2083 111.28 33.9587C111.564 33.9338 111.857 33.9081 112.157 33.8558C123.227 32.2965 129.912 21.2171 129.76 11.839L129.75 11.7183C129.701 10.3673 129.289 5.75543 126.14 3.02503L126.148 3.02428ZM124.564 11.9201C124.688 19.3979 119.127 27.6252 111.429 28.7156C107.396 29.2857 104.74 27.6328 103.876 24.4071C101.846 28.2075 98.2043 30.5763 93.2012 31.2834C86.7566 32.1947 83.4435 28.0886 85.0177 21.1572C85.3098 19.8285 85.7293 18.5668 86.252 17.3917C85.9885 17.4582 85.7329 17.5153 85.4585 17.5567C85.0125 17.6218 84.5188 17.6389 84.0659 17.6264C84.1902 25.1043 78.6296 33.3401 70.9314 34.4219C66.9318 34.9804 64.2881 33.3612 63.4017 30.1809C61.4804 34.1368 58.8135 36.125 55.8008 36.545C52.437 37.0217 51.0697 35.3951 51.5498 31.5479C51.865 29.1301 53.0817 26.2342 54.0897 23.8348L54.0898 23.8347C54.4117 23.0684 54.7123 22.3528 54.9555 21.7196C55.4152 20.4197 55.2869 19.4492 54.5233 19.5594C54.1081 19.616 53.6662 19.7763 53.1541 19.9621C52.5652 20.1758 51.8834 20.4232 51.0424 20.5851C50.0566 24.3114 48.5379 27.6066 46.524 30.4065C42.6799 35.7208 37.1183 39.1785 30.5536 40.1091C23.173 41.1457 19.6346 36.2514 21.585 27.6624C23.8013 17.8426 30.4274 10.5648 38.0919 9.49458C43.3952 8.74391 46.2029 12.1384 45.0711 17.0764C44.3359 20.3899 42.1333 22.9196 39.4829 23.5077C36.4663 24.1799 35.3923 22.7275 35.2067 20.6065C35.0643 18.4818 35.8107 15.7929 36.4673 13.9632C34.3003 15.0128 31.2648 19.6396 30.2457 23.4818C28.641 29.469 29.4837 32.1492 32.9297 32.6123C37.0799 33.1787 40.7602 31.5536 43.4216 28.2106C44.971 26.2593 46.1501 23.7497 46.9534 20.7169C46.0864 20.1412 45.8093 19.3575 46.0752 18.1267C46.4064 16.3515 47.8512 14.9914 49.4731 14.7626C50.561 14.6132 50.9928 14.874 51.4439 15.1464C51.4982 15.1792 51.5529 15.2122 51.609 15.2447C53.5036 15.0994 54.7347 14.663 55.8469 14.2688C56.6243 13.9932 57.3436 13.7383 58.1909 13.6177C61.1087 13.206 62.8587 14.9381 62.3499 17.5629C61.9956 19.3788 61.5063 20.8195 61.0109 22.2783C60.5586 23.61 60.1012 24.9569 59.7366 26.6182C59.3825 28.2303 59.5771 29.0646 60.1774 29.2728C60.679 29.4461 61.714 28.5649 62.6303 27.3206C62.8011 27.0885 62.9498 26.9017 63.1023 26.7581C63.1536 25.9543 63.2787 25.1007 63.4777 24.1971C65.0788 17.1764 70.1544 11.9368 76.1961 11.0868C78.5903 10.747 81.0492 11.6439 82.2422 12.6689C83.2634 13.5178 84.6972 14.0179 86.0852 13.8965C87.8792 13.7634 89.1544 12.6689 90.4123 11.5197C92.4315 9.67506 94.8364 8.46558 97.4194 8.10059C101.959 7.46016 104.379 9.80258 103.468 13.8787C102.849 16.6433 101.008 18.6288 98.8189 18.9333C97.197 19.162 95.9502 18.5153 95.3864 17.2354C94.9033 15.9832 95.1232 14.2265 95.9829 12.3355C94.8318 13.2789 93.2927 16.3413 92.7388 18.8484C91.968 22.2519 92.916 25.0445 95.9537 25.1089C99.488 25.1906 101.962 22.9847 103.121 21.6323C103.303 21.4253 103.462 21.2636 103.606 21.1207C103.656 20.2997 103.779 19.4288 103.986 18.5073C105.587 11.4866 110.662 6.23836 116.704 5.39695C119.098 5.05718 121.556 5.94545 122.75 6.97909C124.442 8.44694 124.584 11.953 124.584 11.953L124.564 11.9201ZM115.715 9.67092C114.136 9.89593 112.542 12.3376 111.772 15.741C110.997 19.1014 111.602 21.2465 113.181 21.0215C114.759 20.7965 116.353 18.3549 117.127 14.9945C117.898 11.591 117.294 9.45453 115.715 9.67954L115.715 9.67092ZM71.2717 21.4389C72.0426 18.0354 73.636 15.5938 75.2148 15.3688C76.8023 15.143 77.3976 17.2802 76.6268 20.6837C75.8529 24.0527 74.2595 26.4943 72.6807 26.7193C71.0932 26.9451 70.4972 24.7993 71.2717 21.4389Z" fill="#00FFB2"/>
</g>
</svg>
