<svg width="211" height="164" viewBox="0 0 211 164" fill="none" xmlns="http://www.w3.org/2000/svg">
<path opacity="0.2" fill-rule="evenodd" clip-rule="evenodd" d="M179.955 152.45C179.502 152.922 178.879 153.193 178.225 153.203C177.571 153.213 176.937 152.952 176.475 152.49C174.553 150.57 171.475 147.506 169.574 145.607C168.648 144.672 168.628 143.165 169.533 142.21C197.449 112.557 196.896 65.8422 167.884 36.8526C138.308 7.31027 90.2837 7.31027 60.7084 36.8526C40.398 57.1403 40.398 90.089 60.7084 110.377C81.0188 130.664 114.004 130.664 134.315 110.377C145.36 99.3436 145.36 81.4272 134.315 70.3941C123.269 59.3609 105.333 59.3609 94.2874 70.3941C92.5068 72.1726 92.5068 75.0567 94.2874 76.8352C96.0679 78.6239 98.9551 78.6239 100.736 76.8352C108.22 69.3693 120.372 69.3693 127.856 76.8352C135.341 84.3113 135.341 96.4497 127.856 103.926C111.107 120.656 83.916 120.656 67.1667 103.926C50.4174 87.1951 50.4174 60.0342 67.1667 43.3036C93.1809 17.3184 135.421 17.3184 161.435 43.3036C187.45 69.2888 187.45 111.482 161.435 137.467C126.156 172.707 68.8668 172.707 33.5877 137.467C-1.09787 102.81 -1.6813 46.9109 31.8575 11.5505C32.3102 11.0782 32.9338 10.8069 33.5877 10.7969C34.2416 10.7969 34.8652 11.0483 35.328 11.5105C37.2594 13.4298 40.3276 16.4944 42.2289 18.3935C43.1644 19.328 43.1846 20.8354 42.2792 21.79C14.3638 51.4429 14.907 98.1578 43.9189 127.147C73.5043 156.69 121.519 156.69 151.094 127.147C171.404 106.86 171.404 73.9111 151.094 53.6233C130.784 33.3356 97.8083 33.3356 77.498 53.6233C66.4525 64.6565 66.4525 82.5728 77.498 93.606C88.5434 104.639 106.48 104.639 117.525 93.606C119.306 91.8274 119.306 88.9434 117.525 87.1648C115.745 85.3862 112.847 85.3862 111.067 87.1648C103.583 94.6408 91.4304 94.6408 83.9461 87.1648C76.4718 79.6888 76.4718 67.5503 83.9461 60.0743C100.705 43.3437 127.897 43.3437 144.646 60.0743C161.395 76.8049 161.395 103.966 144.646 120.696C118.632 146.682 76.3913 146.682 50.3771 120.696C24.363 94.7113 24.363 52.518 50.3771 26.5329C85.6562 -8.70691 142.936 -8.70691 178.215 26.5329C212.91 61.1898 213.484 117.089 179.955 152.45Z" fill="#8959FF"/>
<path d="M206.479 49.0879C207.855 49.0885 209.161 49.8339 209.752 51.0837C210.097 51.8189 210.238 52.6305 210.079 53.3583L203.711 83.225C203.303 85.1151 201.615 86.4505 199.688 86.4001L195.537 86.4248L201.181 109.14L201.172 109.154C201.535 110.644 201.207 112.211 200.26 113.428C199.33 114.632 197.872 115.345 196.346 115.344L186.696 115.369C185.274 115.371 183.929 114.787 183.033 113.784C182.952 113.7 181.86 112.338 180.996 111.255L175.731 111.263L174.375 113.235C173.452 114.59 171.923 115.4 170.284 115.403L150.006 115.447C148.585 115.45 147.235 114.835 146.297 113.805C146.27 113.771 145.305 112.573 144.299 111.333L144.254 111.554C143.752 113.84 141.732 115.472 139.393 115.477L119.123 115.522C117.476 115.523 115.98 114.728 115.061 113.444C115.048 113.421 114.121 112.286 113.401 111.407L108.159 111.417L106.81 113.389C105.872 114.743 104.344 115.554 102.704 115.556L93.0462 115.579C92.1667 115.577 91.3186 115.346 90.5725 114.93C89.1969 115.358 87.7511 115.591 86.2917 115.597L62.1555 115.653C60.644 115.654 59.2113 114.97 58.2725 113.805L53.0855 107.291C52.1988 106.131 51.8598 104.621 52.1672 103.187L58.4734 77.397C58.6058 76.8558 59.0939 76.4773 59.651 76.4836L65.3392 76.5486C65.2544 75.5514 65.4669 74.5425 65.9698 73.6592L69.5789 67.3125C69.5205 67.2238 69.4695 67.1359 69.4186 67.0479C68.3698 65.1339 68.0961 62.9998 68.6037 60.6539C69.1302 58.2724 70.6245 55.6232 73.6374 53.4105C76.9272 50.9936 82.4066 48.9252 90.8081 48.9059C97.9532 48.8912 103.605 50.5783 106.535 51.6883C107.41 50.2154 109.013 49.2693 110.795 49.267L130.618 49.2576C134.04 49.2458 136.991 50.1627 139.305 51.6898C140.176 50.1864 141.799 49.1971 143.619 49.1913L166.786 49.132C167.454 49.1415 168.11 49.2699 168.708 49.5202C169.305 49.2741 169.952 49.1312 170.629 49.1266L186.066 49.0586C187.518 49.052 188.846 49.6639 189.778 50.6711C189.804 50.7114 190.084 51.0565 190.491 51.5501C191.369 50.0549 192.982 49.0799 194.788 49.0726L206.479 49.0879Z" fill="#106C2A"/>
<path d="M206.479 49.0879C207.855 49.0885 209.161 49.8339 209.752 51.0837C210.097 51.8189 210.238 52.6305 210.079 53.3583L203.711 83.225C203.303 85.1151 201.615 86.4505 199.688 86.4001L195.537 86.4248L201.181 109.14L201.172 109.154C201.535 110.644 201.207 112.211 200.26 113.428C199.33 114.632 197.872 115.345 196.346 115.344L186.696 115.369C185.274 115.371 183.929 114.787 183.033 113.784C182.952 113.7 181.86 112.338 180.996 111.255L175.731 111.263L174.375 113.235C173.452 114.59 171.923 115.4 170.284 115.403L150.006 115.447C148.585 115.45 147.235 114.835 146.297 113.805C146.27 113.771 145.305 112.573 144.299 111.333L144.254 111.554C143.752 113.84 141.732 115.472 139.393 115.477L119.123 115.522C117.476 115.523 115.98 114.728 115.061 113.444C115.048 113.421 114.121 112.286 113.401 111.407L108.159 111.417L106.81 113.389C105.872 114.743 104.344 115.554 102.704 115.556L93.0462 115.579C92.1667 115.577 91.3186 115.346 90.5725 114.93C89.1969 115.358 87.7511 115.591 86.2917 115.597L62.1555 115.653C60.644 115.654 59.2113 114.97 58.2725 113.805L53.0855 107.291C52.1988 106.131 51.8598 104.621 52.1672 103.187L58.4734 77.397C58.6058 76.8558 59.0939 76.4773 59.651 76.4836L65.3392 76.5486C65.2544 75.5514 65.4669 74.5425 65.9698 73.6592L69.5789 67.3125C69.5205 67.2238 69.4695 67.1359 69.4186 67.0479C68.3698 65.1339 68.0961 62.9998 68.6037 60.6539C69.1302 58.2724 70.6245 55.6232 73.6374 53.4105C76.9272 50.9936 82.4066 48.9252 90.8081 48.9059C97.9532 48.8912 103.605 50.5783 106.535 51.6883C107.41 50.2154 109.013 49.2693 110.795 49.267L130.618 49.2576C134.04 49.2458 136.991 50.1627 139.305 51.6898C140.176 50.1864 141.799 49.1971 143.619 49.1913L166.786 49.132C167.454 49.1415 168.11 49.2699 168.708 49.5202C169.305 49.2741 169.952 49.1312 170.629 49.1266L186.066 49.0586C187.518 49.052 188.846 49.6639 189.778 50.6711C189.804 50.7114 190.084 51.0565 190.491 51.5501C191.369 50.0549 192.982 49.0799 194.788 49.0726L206.479 49.0879Z" fill="url(#paint0_linear_2113_722)"/>
<path d="M204.145 51.113C204.904 51.117 205.62 51.4624 206.093 52.0454C206.613 52.686 206.818 53.5347 206.651 54.3443L206.68 54.3628L201.107 80.9882C200.823 82.3496 199.623 83.3226 198.232 83.3207L191.062 83.3118L197.116 107.682L197.095 107.664C197.281 108.406 197.109 109.193 196.639 109.806C196.163 110.403 195.442 110.756 194.675 110.759L185.025 110.783C184.333 110.786 183.676 110.515 183.231 110.025C183.137 109.918 181.26 107.579 180.544 106.662L172.767 106.678L170.665 109.738C170.204 110.411 169.432 110.82 168.613 110.817L148.342 110.87C147.62 110.87 146.952 110.568 146.479 110.052C146.418 109.976 142.573 105.227 142.461 105.039L141.573 103.45L141.355 103.449L140.152 108.934C139.899 110.065 138.881 110.877 137.723 110.884L128.064 110.915C127.907 110.913 127.743 110.896 127.588 110.865C127.427 110.893 127.267 110.915 127.11 110.914L117.452 110.937C116.633 110.934 115.884 110.541 115.425 109.899C115.405 109.867 113.345 107.343 112.933 106.819L105.193 106.839L103.092 109.899C102.631 110.573 101.859 110.981 101.04 110.978L91.3891 111.003C90.5914 111.01 89.8632 110.641 89.394 110.02C87.8986 110.661 86.2811 111.027 84.6269 111.028L60.4912 111.076C59.7388 111.081 59.0223 110.735 58.5492 110.152L54.8512 105.593C54.3789 105.002 54.196 104.231 54.3628 103.497L60.329 78.9246L69.3566 78.8299C68.575 77.8609 67.9 77.0193 67.8521 76.9362C67.7576 76.7609 67.6793 76.5792 67.6242 76.3854C67.4357 75.7417 67.5154 75.0506 67.8542 74.4694L71.6769 67.7316C71.8695 67.3984 72.1233 67.1237 72.4225 66.9218L72.3703 66.849C71.9443 66.391 71.5881 65.9101 71.323 65.4237C70.5653 64.0364 70.3904 62.4692 70.7561 60.7629C71.1809 58.8521 72.4217 56.7626 74.8247 54.9902C77.8286 52.7919 82.8513 50.9915 90.5305 50.9722C100.518 50.953 107.396 54.4522 107.396 54.4522C107.531 54.5264 107.65 54.6066 107.776 54.6949L108.079 53.305C108.326 52.1654 109.328 51.3525 110.509 51.3477L130.324 51.3372C134.77 51.3194 138.284 53.1073 140.259 55.8699L140.307 55.9198L140.896 53.2212C141.15 52.0822 142.167 51.271 143.326 51.2639L166.491 51.212C167.245 51.2003 167.954 51.5375 168.427 52.1206C168.885 51.5519 169.583 51.2031 170.35 51.2003L185.788 51.1251C186.51 51.1252 187.179 51.4276 187.645 51.9348C187.735 52.037 190.917 55.9611 191.323 56.4694L192.065 53.0953C192.312 51.9556 193.321 51.1505 194.494 51.145L204.145 51.113Z" fill="black"/>
<path fill-rule="evenodd" clip-rule="evenodd" d="M156.122 105.331L145.501 105.359L141.342 97.9322L136.514 97.9403L134.889 105.381L125.231 105.405L130.672 80.615L151.424 80.567C157.02 80.5562 160.715 84.423 159.659 89.2158C158.86 92.8398 155.58 95.957 151.601 97.2644L156.122 105.331ZM156.122 105.331L173.146 80.5149L185.699 80.4848L191.849 105.249L182.191 105.273L181.17 101.143L168.617 101.173L165.779 105.314L156.129 105.339L156.122 105.331ZM138.874 87.1999L137.97 91.3318L148.101 91.3123C149.432 91.3082 150.709 90.3811 150.963 89.242C151.218 88.0954 150.336 87.1838 149.005 87.1805L138.874 87.1999ZM177.83 87.7333L172.581 95.3903L179.726 95.3755L177.83 87.7333ZM148.1 60.5112L141.345 60.5365L142.798 53.8826L165.964 53.8305L164.504 60.4763L157.749 60.4942L155.207 72.0429L161.969 72.0257L160.51 78.6715L137.35 78.7317L138.802 72.0852L145.564 72.068L148.1 60.5112ZM178.128 59.9862L174.055 78.5793L164.397 78.6029L169.838 53.8132L185.276 53.7379L189.894 72.3493L193.981 53.7653L203.631 53.7409L198.19 78.5305L182.752 78.6059L178.135 59.987L178.128 59.9862ZM115.474 72.9023L114.191 78.7168L104.54 78.7487L109.981 53.959L129.804 53.9496C135.912 53.9319 139.93 58.1633 138.784 63.3904C137.637 68.6174 131.758 72.8625 125.65 72.8801L115.474 72.9023ZM118.184 60.5365L116.911 66.3294L125.795 66.3003C127.66 66.2992 129.457 65.005 129.804 63.4019C130.158 61.8071 128.925 60.5129 127.066 60.5223L118.184 60.5365ZM103.25 71.4328C102.43 75.1899 98.0817 79.1734 86.4987 79.1994C75.7433 79.2214 69.4726 75.8232 69.4726 75.8232L73.3104 69.0869C73.3104 69.0869 81.5761 71.8133 88.0895 71.8003C90.9026 71.7927 92.5026 71.4481 92.6445 70.8087C92.8865 69.7135 89.9431 69.1661 83.9831 68.5599C74.5788 67.5948 71.8703 65.0114 72.6577 61.4239C73.4519 57.8445 78.4267 53.618 90.0023 53.5912C99.3206 53.5773 105.729 56.8095 105.729 56.8095L101.234 63.4247C101.234 63.4247 94.7538 60.9595 87.2469 60.9817C84.3816 60.9839 82.6868 61.2284 82.5434 61.8827C82.2901 63.0143 84.4475 63.3821 90.7341 64.0298C99.2309 64.9003 104.037 67.8452 103.242 71.432L103.25 71.4328ZM101.029 101.326L98.1913 105.467L88.5411 105.491L105.565 80.6753L118.119 80.6451L124.269 105.402L114.618 105.434L113.589 101.304L101.036 101.334L101.029 101.326ZM110.258 87.887L105.008 95.544L112.153 95.5292L110.258 87.887ZM81.7873 105.501L57.6583 105.558L63.0994 80.7687L85.7846 80.7117C89.7789 80.6993 92.4144 83.4781 91.6671 86.8969C91.1285 89.3223 89.0359 91.4354 86.4336 92.45C89.6867 93.1275 91.6546 95.7464 90.9681 98.8708C90.1587 102.524 86.0591 105.495 81.7873 105.501ZM71.2931 87.3603L70.5648 90.6683L80.2226 90.6446C81.2838 90.6349 82.3162 89.8928 82.5157 88.9886C82.7085 88.0763 82.0113 87.3344 80.9434 87.3359L71.2931 87.3603ZM68.6681 99.3439L79.2806 99.3221C80.3493 99.3131 81.3817 98.571 81.5737 97.6661C81.774 96.7545 81.0768 96.0126 80.0089 96.0141L69.3889 96.0352L68.6681 99.3439Z" fill="#1DA443"/>
<path fill-rule="evenodd" clip-rule="evenodd" d="M156.122 105.331L145.501 105.359L141.342 97.9322L136.514 97.9403L134.889 105.381L125.231 105.405L130.672 80.615L151.424 80.567C157.02 80.5562 160.715 84.423 159.659 89.2158C158.86 92.8398 155.58 95.957 151.601 97.2644L156.122 105.331ZM156.122 105.331L173.146 80.5149L185.699 80.4848L191.849 105.249L182.191 105.273L181.17 101.143L168.617 101.173L165.779 105.314L156.129 105.339L156.122 105.331ZM138.874 87.1999L137.97 91.3318L148.101 91.3123C149.432 91.3082 150.709 90.3811 150.963 89.242C151.218 88.0954 150.336 87.1838 149.005 87.1805L138.874 87.1999ZM177.83 87.7333L172.581 95.3903L179.726 95.3755L177.83 87.7333ZM148.1 60.5112L141.345 60.5365L142.798 53.8826L165.964 53.8305L164.504 60.4763L157.749 60.4942L155.207 72.0429L161.969 72.0257L160.51 78.6715L137.35 78.7317L138.802 72.0852L145.564 72.068L148.1 60.5112ZM178.128 59.9862L174.055 78.5793L164.397 78.6029L169.838 53.8132L185.276 53.7379L189.894 72.3493L193.981 53.7653L203.631 53.7409L198.19 78.5305L182.752 78.6059L178.135 59.987L178.128 59.9862ZM115.474 72.9023L114.191 78.7168L104.54 78.7487L109.981 53.959L129.804 53.9496C135.912 53.9319 139.93 58.1633 138.784 63.3904C137.637 68.6174 131.758 72.8625 125.65 72.8801L115.474 72.9023ZM118.184 60.5365L116.911 66.3294L125.795 66.3003C127.66 66.2992 129.457 65.005 129.804 63.4019C130.158 61.8071 128.925 60.5129 127.066 60.5223L118.184 60.5365ZM103.25 71.4328C102.43 75.1899 98.0817 79.1734 86.4987 79.1994C75.7433 79.2214 69.4726 75.8232 69.4726 75.8232L73.3104 69.0869C73.3104 69.0869 81.5761 71.8133 88.0895 71.8003C90.9026 71.7927 92.5026 71.4481 92.6445 70.8087C92.8865 69.7135 89.9431 69.1661 83.9831 68.5599C74.5788 67.5948 71.8703 65.0114 72.6577 61.4239C73.4519 57.8445 78.4267 53.618 90.0023 53.5912C99.3206 53.5773 105.729 56.8095 105.729 56.8095L101.234 63.4247C101.234 63.4247 94.7538 60.9595 87.2469 60.9817C84.3816 60.9839 82.6868 61.2284 82.5434 61.8827C82.2901 63.0143 84.4475 63.3821 90.7341 64.0298C99.2309 64.9003 104.037 67.8452 103.242 71.432L103.25 71.4328ZM101.029 101.326L98.1913 105.467L88.5411 105.491L105.565 80.6753L118.119 80.6451L124.269 105.402L114.618 105.434L113.589 101.304L101.036 101.334L101.029 101.326ZM110.258 87.887L105.008 95.544L112.153 95.5292L110.258 87.887ZM81.7873 105.501L57.6583 105.558L63.0994 80.7687L85.7846 80.7117C89.7789 80.6993 92.4144 83.4781 91.6671 86.8969C91.1285 89.3223 89.0359 91.4354 86.4336 92.45C89.6867 93.1275 91.6546 95.7464 90.9681 98.8708C90.1587 102.524 86.0591 105.495 81.7873 105.501ZM71.2931 87.3603L70.5648 90.6683L80.2226 90.6446C81.2838 90.6349 82.3162 89.8928 82.5157 88.9886C82.7085 88.0763 82.0113 87.3344 80.9434 87.3359L71.2931 87.3603ZM68.6681 99.3439L79.2806 99.3221C80.3493 99.3131 81.3817 98.571 81.5737 97.6661C81.774 96.7545 81.0768 96.0126 80.0089 96.0141L69.3889 96.0352L68.6681 99.3439Z" fill="url(#paint1_linear_2113_722)"/>
<path d="M0.529623 111.057L0.5 111.375L0.611087 112.027C1.0036 114.367 3.01057 116.063 5.38043 116.063L56.2362 116.048C57.4359 116.048 58.5616 115.523 59.3392 114.604C60.1168 113.679 60.4353 112.479 60.2279 111.294L60.1983 111.138L58.1617 104.739C62.3608 103.65 69.3001 99.4956 73.3807 84.4683C76.0171 74.7365 73.7065 67.9894 66.3155 63.9086C67.0265 62.4792 67.3227 60.8795 67.4338 59.5167C67.5079 58.6132 67.2042 57.717 66.5821 57.0504C65.9674 56.3913 65.101 56.0136 64.2049 56.0062H63.2939C63.5013 55.4803 63.568 54.91 63.4865 54.3472V54.325C63.4421 54.0657 63.405 53.7917 63.368 53.5547V53.5251C63.1532 52.0735 61.9831 50.9403 60.5242 50.7774L58.3987 50.5256C58.2728 50.5107 58.1469 50.5033 58.021 50.5033C57.8359 50.5033 57.6507 50.5181 57.4656 50.5478C57.0805 50.3922 56.6583 50.3034 56.2288 50.3034C55.977 50.3034 55.7326 50.333 55.4882 50.3848L55.0661 50.4885C53.7478 50.7922 52.7925 51.8587 52.5999 53.1474L51.6594 52.4734C52.7481 49.8738 52.2222 46.7854 50.156 44.7043L49.6154 44.1562C48.5045 43.0378 47.0382 42.4231 45.4681 42.4231C44.9942 42.4231 44.5202 42.4824 44.0536 42.5935C42.8909 42.8823 41.8467 43.5341 41.0172 44.4821L38.44 47.452H30.8787L25.7687 42.0084C24.3541 40.4975 22.3472 39.631 20.2735 39.631C19.5255 39.631 18.7776 39.7421 18.0592 39.9643C15.2894 40.8086 13.2824 43.1119 12.8159 45.9707L12.2234 49.5998C11.8753 51.7254 12.453 53.9028 13.8157 55.5766L14.6599 56.6061C13.0232 59.4352 9.52769 66.1527 6.12102 77.1361C2.75877 88.0085 0.618493 110.124 0.529623 111.057Z" fill="url(#paint2_linear_2113_722)"/>
<path fill-rule="evenodd" clip-rule="evenodd" d="M56.3254 113.664L5.47704 113.679C4.28471 113.679 3.27011 112.819 3.07756 111.642L3.01831 111.301C3.01831 111.301 5.18822 88.6232 8.51343 77.862C13.0236 63.3013 17.6966 56.4209 17.6966 56.4209L15.7785 54.0657C14.8528 52.9252 14.4529 51.4439 14.6899 49.9923L15.2823 46.3632C15.5934 44.4302 16.9857 42.8379 18.852 42.2676C20.7256 41.6973 22.7622 42.238 24.1027 43.6674L29.9237 49.8664H39.6253L42.9283 46.0818C43.4022 45.5337 44.0243 45.119 44.7279 44.9487C45.9276 44.6524 47.157 45.0153 48.0013 45.8596L48.5419 46.4077C50.2156 48.0963 50.3711 50.77 48.8974 52.6363L48.5197 53.1177L51.8301 55.4951C53.9629 57.3171 54.348 59.4204 54.3332 60.8276L63.7831 65.2788C71.137 68.656 73.7439 74.2477 71.1444 83.8388C65.6419 104.124 55.0664 102.68 55.0664 102.68L57.9473 111.716C58.0287 112.197 57.8954 112.686 57.5844 113.056C57.2733 113.427 56.8068 113.641 56.3254 113.641V113.664Z" fill="black"/>
<path fill-rule="evenodd" clip-rule="evenodd" d="M46.4229 51.6273L46.8746 51.057C47.5412 50.2053 47.4745 48.9906 46.7117 48.2278L46.1711 47.6797C46.0082 47.5094 45.7712 47.4205 45.5342 47.4279C45.2972 47.4353 45.075 47.5464 44.9195 47.7242L42.8977 50.0497C44.09 50.2867 45.2305 50.7755 46.2303 51.4939L46.4303 51.6347L46.4229 51.6273Z" fill="#DF8F4E"/>
<path fill-rule="evenodd" clip-rule="evenodd" d="M42.8904 50.0278C44.0827 50.2648 45.2232 50.7536 46.223 51.472L44.9122 47.7022L42.8904 50.0278Z" fill="#C77230"/>
<path fill-rule="evenodd" clip-rule="evenodd" d="M30.8336 54.5854C30.0412 54.6298 29.271 54.341 28.7008 53.7929C26.753 51.9118 22.2281 47.5273 21.5986 47.0607C18.7622 44.9499 17.8142 46.7718 17.8142 46.7718C17.9697 45.8016 18.6659 45.0091 19.599 44.7277C20.5321 44.4389 21.5541 44.7129 22.2207 45.4239L30.8262 54.5854H30.8336Z" fill="url(#paint3_linear_2113_722)"/>
<path fill-rule="evenodd" clip-rule="evenodd" d="M55.8447 111.336L10.9802 111.299C10.9802 111.299 12.2985 90.2354 14.0907 83.1625C15.8829 76.0895 19.6673 70.7792 19.6673 70.7792C19.8006 70.483 19.7561 70.1423 19.5414 69.8979C19.3266 69.6535 19.0007 69.5498 18.6897 69.6313C18.3638 69.7201 18.0083 69.6165 17.7862 69.3572C17.564 69.098 17.4973 68.7425 17.6306 68.4241L22.1408 57.4184L18.2009 52.5747C17.7343 52.0044 17.5418 51.2638 17.6603 50.538V46.5608C17.8232 45.5906 18.4453 45.0426 19.3858 44.7537C20.319 44.4649 21.9927 44.85 22.6592 45.5684L30.7612 54.1893C30.85 54.2781 30.9833 54.3152 31.0944 54.2707C31.2055 54.2263 31.2944 54.1152 31.3018 53.9967L31.3314 53.382C31.3536 52.9376 31.7239 52.5821 32.1683 52.5821H41.6625C42.9141 52.5895 44.1435 52.9821 45.1581 53.7153L50.7569 57.7369C51.2309 58.0775 51.5049 58.6404 51.4827 59.2255L54.5561 62.5805L64.702 68.2241C69.6565 70.6533 71.0192 77.1412 69.3825 82.4144L65.0501 93.4497C60.7029 102.722 51.0457 99.8487 51.0457 99.8487L55.5855 109.521L55.8447 111.328V111.336Z" fill="url(#paint4_linear_2113_722)"/>
<path fill-rule="evenodd" clip-rule="evenodd" d="M64.2282 93.9396C57.1186 103.701 42.7069 96.28 42.7069 96.28C36.3082 93.0657 42.5069 90.4883 42.5069 90.4883C42.5069 90.4883 38.7373 91.1179 38.2486 88.7479C37.9079 87.1259 39.9815 82.7933 44.8694 80.3566C37.4932 83.2747 37.4561 76.7646 45.9728 74.1576C42.8476 72.6838 49.6017 68.6992 49.6017 68.6992C49.6017 68.6992 45.1878 69.8472 48.0465 65.5367L59.8291 65.6849L65.2724 68.5363C67.6052 69.9064 69.3234 81.9416 68.3754 84.4745L64.2356 93.9322L64.2282 93.9396Z" fill="url(#paint5_linear_2113_722)"/>
<path fill-rule="evenodd" clip-rule="evenodd" d="M55.4283 111.025L10.9786 111.136L9.32709 85.3993C9.23081 85.2882 11.3785 75.7638 14.3186 68.639C16.881 62.4251 20.2062 55.9077 20.2062 55.9077L17.7771 52.4193C17.3106 51.849 17.118 51.1084 17.2365 50.3826L17.7845 46.6573C18.5621 46.5388 19.5027 47.346 20.6876 48.1237L25.5755 53.6117L26.716 59.1368L46.5858 64.5211L47.193 65.8839C43.9197 71.8533 37.5062 71.5867 40.0316 69.2093C40.0316 69.2093 35.4474 71.6607 33.0701 71.6607C30.6929 71.6607 33.0701 69.1204 33.0701 69.1204C33.0701 69.1204 31.0039 69.3574 27.9601 70.3424C25.5014 71.1423 24.3757 73.2457 26.6197 73.8604C27.6565 74.1418 29.5598 73.9492 29.5598 73.9492C29.5598 73.9492 17.2735 76.0748 20.0507 83.8958C22.1392 87.2138 27.3306 83.8958 27.3306 83.8958C27.3306 83.8958 19.947 91.502 22.5465 94.2349C24.5757 96.3753 30.3744 91.3983 30.3744 91.3983C30.3744 91.3983 26.7678 95.6421 28.3971 97.7455C30.5448 100.53 36.0621 94.4275 36.0621 94.4275C36.0621 94.4275 39.6169 99.6044 47.2745 98.9157L55.0877 108.951L55.4505 111.01L55.4283 111.025Z" fill="url(#paint6_linear_2113_722)"/>
<path fill-rule="evenodd" clip-rule="evenodd" d="M55.6069 109.537L47.2605 98.9462C47.1568 99.2647 43.7057 109.433 37.4404 108.034C34.5447 107.389 33.6634 101.309 33.6634 101.309C33.6634 101.309 28.3979 108.908 25.3319 107.9C22.7547 107.049 25.6059 98.9314 25.6059 98.9314C25.6059 98.9314 18.6074 107.649 16.1857 105.219C13.7566 102.79 17.1262 95.4801 17.1262 95.4801C17.1262 95.4801 14.4009 97.7094 12.942 96.1096C10.8313 93.7989 16.2005 87.9406 16.2005 87.9406C16.2005 87.9406 13.6159 89.6736 12.9271 88.3849C11.6311 85.9631 17.9557 80.9787 17.9557 80.9787C17.9557 80.9787 13.2382 82.6599 12.5939 80.8898C10.5128 76.0165 19.0369 72.1875 19.0369 72.1875C19.0369 72.1875 16.0672 72.7504 14.9712 71.8765C11.8459 69.7879 20.0367 58.5008 20.0367 58.5008C20.0367 58.5008 14.3639 64.9368 10.8757 77.4608C7.38759 89.9847 5.40283 111.589 5.40283 111.589H55.955L55.5995 109.545L55.6069 109.537Z" fill="url(#paint7_linear_2113_722)"/>
<path d="M11.0088 78.4169C14.4895 65.93 5.13599 111.382 5.11377 111.582C5.11377 111.582 7.52066 90.9408 11.0088 78.4169Z" fill="url(#paint8_linear_2113_722)"/>
<path d="M20.1994 55.9163C20.1994 55.9163 20.7326 56.5458 20.8141 57.4716C18.2221 60.1378 14.3859 71.2546 11.7938 80.5568C8.32049 93.0215 7.27627 111.382 7.25405 111.582H5.11377C5.11377 111.582 6.62456 91.5254 10.8829 77.4536C14.9265 64.115 20.1846 55.9385 20.1994 55.9163Z" fill="url(#paint9_linear_2113_722)"/>
<path fill-rule="evenodd" clip-rule="evenodd" d="M47.3783 64.7968C47.8745 64.4709 48.3411 64.1376 48.7854 63.8043C49.8667 62.9971 50.8294 62.1824 51.8144 61.5751C52.0366 61.4417 52.2514 61.3158 52.4735 61.2047L65.7003 68.7517C69.3958 70.5144 71.6694 75.3284 69.8031 82.357C69.8031 82.357 65.6263 95.192 61.7308 97.8508C62.9157 97.0435 68.5738 80.5424 68.5738 80.5424C69.4477 74.2471 67.0556 71.7438 65.4411 70.7958L61.2272 68.3221C61.2272 68.3221 63.3231 70.4403 62.2196 70.8773C60.6644 71.492 55.3174 67.6037 55.3174 67.6037C55.3174 67.6037 56.2875 68.9739 55.2877 69.0776C53.066 69.2924 47.3857 64.7894 47.3857 64.7894L47.3783 64.7968ZM49.9852 57.1313H42.6386L38.869 53.8948L31.3447 53.3171C31.3669 52.8801 31.7224 52.532 32.1668 52.532H41.6832C42.9348 52.5394 44.1642 52.932 45.1788 53.6652L49.9926 57.1239L49.9852 57.1313Z" fill="url(#paint10_linear_2113_722)"/>
<path fill-rule="evenodd" clip-rule="evenodd" d="M69.1879 76.039C69.1879 76.039 69.1583 76.039 69.1509 76.0094C68.7658 75.9428 68.4769 75.6169 68.4547 75.2317C68.3955 74.4615 68.0992 73.7135 67.5808 73.1136C67.3068 72.7951 67.2994 72.3285 67.566 72.0026C67.566 71.9952 67.5808 71.9804 67.6105 71.9804C67.766 71.7953 67.9956 71.6842 68.2399 71.6768C68.4843 71.6768 68.7213 71.773 68.8768 71.9582C69.6471 72.8766 70.0914 73.9949 70.1951 75.1503C70.2025 75.4095 70.0988 75.6539 69.9063 75.8317C69.7137 76.0094 69.4545 76.0761 69.2027 76.0316L69.1879 76.039Z" fill="#FEE5C2"/>
<path fill-rule="evenodd" clip-rule="evenodd" d="M65.2647 77.1643C64.576 76.7348 63.7761 76.083 63.7761 75.3942C63.7761 73.5871 65.8423 73.1946 66.4718 74.4166C66.8199 75.0832 66.7162 76.0015 66.5385 76.6903C66.4941 76.9643 66.3015 77.1939 66.0423 77.2902C65.7831 77.3865 65.4869 77.3421 65.2647 77.1643Z" fill="black"/>
<path fill-rule="evenodd" clip-rule="evenodd" d="M55.0876 75.8915C55.1247 74.8398 55.3913 72.6549 56.9613 72.6549C57.8871 72.6549 58.9535 73.1363 58.9535 74.6176C58.9535 75.9285 56.7836 76.2988 55.7023 76.4247C55.5394 76.4469 55.3913 76.4025 55.2728 76.2988C55.1543 76.1951 55.0876 76.0396 55.0951 75.8841L55.0876 75.8915Z" fill="black"/>
<path fill-rule="evenodd" clip-rule="evenodd" d="M42.2314 54.1323C42.0981 54.1027 41.9648 54.0657 41.8389 54.0435C41.5279 53.9694 41.2094 54.0805 41.0094 54.3175C40.8539 54.4952 40.7132 54.6656 40.7132 54.6656C40.7132 54.6656 40.5281 54.5175 40.3577 54.3842C40.1948 54.2582 39.9948 54.1916 39.7875 54.199C39.2765 54.2286 38.2619 54.2805 37.5806 54.3101C37.1806 54.3323 36.8548 54.6286 36.7955 55.0211C36.7585 55.2581 36.7215 55.5395 36.677 55.7913C36.64 56.0283 36.7067 56.2579 36.8548 56.4431C36.9955 56.6282 37.2177 56.7393 37.4547 56.7542C38.6396 56.8282 40.7058 56.9689 41.8389 57.043C42.2832 57.0726 42.6758 56.7467 42.7276 56.3024C42.772 55.9098 42.8239 55.4358 42.8683 55.0507C42.9201 54.6286 42.6387 54.236 42.224 54.1323H42.2314Z" fill="black"/>
<path fill-rule="evenodd" clip-rule="evenodd" d="M55.7109 52.8519C55.8517 52.8223 55.9998 52.7852 56.1331 52.7556C56.4441 52.6815 56.7626 52.7852 56.9625 53.0296C57.1107 53.2074 57.2588 53.3777 57.2588 53.3777C57.2588 53.3777 57.4291 53.2444 57.592 53.1111C57.7698 52.9704 57.9919 52.9037 58.2141 52.9334C58.7251 52.9926 59.6953 53.1037 60.3396 53.1852C60.7173 53.2296 61.0209 53.5184 61.0728 53.8962C61.1098 54.148 61.1468 54.4442 61.1913 54.7109C61.2283 54.9479 61.1616 55.1774 61.0135 55.3626C60.8654 55.5478 60.6506 55.6589 60.4136 55.6737C59.2361 55.7477 57.1995 55.881 56.059 55.9477C55.5999 55.9773 55.2074 55.6292 55.1703 55.17C55.1333 54.7183 55.0963 54.1628 55.0666 53.7332C55.037 53.3185 55.311 52.9482 55.7184 52.8519H55.7109Z" fill="black"/>
<path fill-rule="evenodd" clip-rule="evenodd" d="M47.0019 57.0275C46.7427 57.0275 46.4909 56.946 46.2761 56.7979L43.7211 54.9685C42.9953 54.4427 42.1214 54.1612 41.2253 54.1612V52.443C42.4769 52.443 43.7063 52.8355 44.7209 53.5687L47.4684 55.5462C47.7573 55.7536 47.8758 56.1239 47.7647 56.4572C47.6536 56.7905 47.3425 57.02 46.9871 57.02L47.0019 57.0275Z" fill="url(#paint11_linear_2113_722)"/>
<path fill-rule="evenodd" clip-rule="evenodd" d="M68.0261 70.2331L67.1522 71.7143L53.333 63.6119C53.133 63.5008 52.9923 63.3083 52.9331 63.0861C52.8738 62.8639 52.9108 62.6343 53.0219 62.4343C53.2663 62.027 53.7847 61.8937 54.1995 62.1307L68.0187 70.2405L68.0261 70.2331Z" fill="url(#paint12_linear_2113_722)"/>
<path fill-rule="evenodd" clip-rule="evenodd" d="M67.263 89.1559L64.3969 95.2734L62.4714 97.362C62.4714 97.362 67.1223 85.0084 68.2628 81.5497C68.4109 81.0905 68.9071 80.8461 69.3589 80.9942C69.8032 81.1423 70.0402 81.6163 69.8995 82.0607C68.7738 85.475 67.263 89.1633 67.263 89.1633V89.1559Z" fill="url(#paint13_linear_2113_722)"/>
<path fill-rule="evenodd" clip-rule="evenodd" d="M60.4349 65.2697L53.5993 62.0332C52.7995 62.0998 52.0811 62.4331 51.3775 62.8701C50.3926 63.4774 49.4298 64.2846 48.3486 65.0993C45.9417 66.9065 43.009 68.6839 38.41 68.6839C29.4934 68.6839 26.6347 63.5218 26.2866 59.3077C26.2718 59.0707 26.3533 58.8485 26.5088 58.6781C26.6643 58.5078 26.8865 58.4115 27.1235 58.4115C32.315 58.4115 59.1166 58.4337 64.3007 58.4485C64.5303 58.4485 64.7525 58.5448 64.9154 58.7152C65.0783 58.8855 65.1524 59.1151 65.1302 59.3447C64.7969 63.5218 62.938 65.2771 60.4423 65.2771L60.4349 65.2697Z" fill="black"/>
<path fill-rule="evenodd" clip-rule="evenodd" d="M35.1583 63.9954C35.1139 64.2768 35.2176 64.5657 35.4323 64.7508L39.8462 68.6095C40.2609 68.5725 40.8756 68.491 41.2829 68.4021C41.6828 68.3207 42.7123 68.0466 42.8974 68.0096L41.7865 66.5506C41.6458 66.3506 41.594 66.0988 41.6532 65.8544C41.7125 65.61 41.8754 65.41 42.0976 65.2989L44.7044 64.0176C44.9414 63.8991 45.1043 63.6843 45.1562 63.4251C45.208 63.1659 45.134 62.8993 44.9636 62.7067L41.2089 58.4407H35.973L38.365 60.907C38.5576 61.107 38.6391 61.381 38.5798 61.655C38.528 61.9217 38.3502 62.1513 38.0984 62.2624L35.6397 63.3511C35.3805 63.4696 35.1879 63.7066 35.1509 63.9954H35.1583Z" fill="url(#paint14_linear_2113_722)"/>
<path fill-rule="evenodd" clip-rule="evenodd" d="M56.4669 61.1669C56.415 61.4335 56.2373 61.6631 55.9855 61.7742L54.1562 62.3297L57.7481 64.1812L60.466 62.9518C60.703 62.8407 60.8807 62.6185 60.94 62.3593C60.9992 62.1001 60.9252 61.8261 60.7474 61.6261L57.8962 58.4192H54.2303L56.2447 60.4263C56.4372 60.6262 56.5187 60.9003 56.4669 61.1743V61.1669Z" fill="url(#paint15_linear_2113_722)"/>
<path fill-rule="evenodd" clip-rule="evenodd" d="M21.5776 54.398C20.7333 53.3611 19.0966 51.354 19.0966 51.354C18.9411 51.1688 18.8819 50.917 18.9189 50.6726L19.2521 48.6063C19.304 48.2878 19.5336 48.0212 19.8446 47.9249C20.1557 47.8286 20.4963 47.9249 20.7185 48.1545C20.7185 48.1545 23.8215 51.4503 25.5767 53.3241C25.7248 53.4796 25.7545 53.7166 25.636 53.9091C25.5249 54.0943 25.3027 54.1832 25.0953 54.1239C24.4732 53.9536 23.7845 53.761 23.2661 53.6203C23.0439 53.5611 22.8143 53.5907 22.6144 53.7092C22.4218 53.8277 22.2885 54.0202 22.2367 54.2424C22.2071 54.3831 22.096 54.4942 21.9553 54.5239C21.822 54.5535 21.6664 54.509 21.5776 54.398Z" fill="black"/>
<path d="M58.9989 63.5596C58.9989 60.9823 56.9105 58.8863 54.3332 58.8863C51.756 58.8863 49.6602 60.9748 49.6602 63.5522C49.6602 66.1296 51.7486 68.2256 54.3258 68.2256C56.903 68.2256 58.9989 66.137 58.9989 63.5596Z" fill="url(#paint16_radial_2113_722)"/>
<path d="M63.6268 60.1898C63.6268 57.6124 61.5384 55.5164 58.9612 55.5164C56.3839 55.5164 54.2881 57.605 54.2881 60.1823C54.2881 62.7597 56.3765 64.8557 58.9537 64.8557C61.531 64.8557 63.6268 62.7671 63.6268 60.1898Z" fill="url(#paint17_radial_2113_722)"/>
<path d="M46.8302 60.0793C46.8302 57.5537 44.7418 55.5022 42.1645 55.5022C39.5873 55.5022 37.4915 57.5463 37.4915 60.0718C37.4915 62.5974 39.5799 64.6489 42.1571 64.6489C44.7343 64.6489 46.8302 62.6048 46.8302 60.0793Z" fill="url(#paint18_radial_2113_722)"/>
<path d="M73.8989 72.6711C73.8989 69.4716 71.3068 66.8794 68.1149 66.872C64.923 66.8646 62.3236 69.4642 62.3162 72.6563C62.3088 75.8484 64.9008 78.448 68.1001 78.4554C71.2994 78.4628 73.8915 75.8632 73.8989 72.6711Z" fill="url(#paint19_radial_2113_722)"/>
<path fill-rule="evenodd" clip-rule="evenodd" d="M54.0297 94.679C52.0671 94.3679 50.4304 93.7384 49.5492 92.9459C49.0011 92.4571 48.8752 91.9017 49.1863 91.7165C49.327 91.6276 49.6158 91.6276 50.0305 91.8498C52.4078 93.1015 55.185 93.3459 56.0144 91.7313L61.4799 78.5186C61.7836 77.7854 62.3168 77.6298 62.7241 77.8742C62.9389 78.0002 62.9907 78.2964 62.9093 78.5334L58.6657 91.9461C58.3547 93.2866 59.236 93.22 60.6875 92.9311C61.2504 92.82 61.5836 92.7534 61.7688 92.7015C61.9761 92.6349 62.2131 92.7015 62.3242 92.8867C62.6797 93.4718 61.5022 94.2865 60.4283 94.5235C58.2658 94.9901 55.9922 94.9975 54.0297 94.679Z" fill="black"/>
<defs>
<linearGradient id="paint0_linear_2113_722" x1="119.92" y1="127.583" x2="143.355" y2="21.8204" gradientUnits="userSpaceOnUse">
<stop stop-color="#DEDCFB"/>
<stop offset="1" stop-color="#F2ECFF"/>
</linearGradient>
<linearGradient id="paint1_linear_2113_722" x1="195.126" y1="94.2993" x2="66.0465" y2="71.4464" gradientUnits="userSpaceOnUse">
<stop stop-color="white"/>
<stop offset="1" stop-color="#C8C8EE"/>
</linearGradient>
<linearGradient id="paint2_linear_2113_722" x1="-2.43049" y1="109.175" x2="65.6932" y2="55.9202" gradientUnits="userSpaceOnUse">
<stop stop-color="#DEDCFB"/>
<stop offset="1" stop-color="#F2ECFF"/>
</linearGradient>
<linearGradient id="paint3_linear_2113_722" x1="24.4119" y1="43.5879" x2="24.4003" y2="56.9191" gradientUnits="userSpaceOnUse">
<stop stop-color="#FF9A44"/>
<stop offset="1" stop-color="#FF7906"/>
</linearGradient>
<linearGradient id="paint4_linear_2113_722" x1="50.3396" y1="62.5373" x2="25.4654" y2="92.3614" gradientUnits="userSpaceOnUse">
<stop stop-color="#FF9036"/>
<stop offset="1" stop-color="#C36B26"/>
</linearGradient>
<linearGradient id="paint5_linear_2113_722" x1="67.6345" y1="68.4785" x2="44.3809" y2="91.6829" gradientUnits="userSpaceOnUse">
<stop stop-color="#FD8B1D"/>
<stop offset="1" stop-color="#E68C3E"/>
</linearGradient>
<linearGradient id="paint6_linear_2113_722" x1="46.7793" y1="66.9262" x2="14.8696" y2="104.691" gradientUnits="userSpaceOnUse">
<stop stop-color="#E47A26"/>
<stop offset="1" stop-color="#9F551C"/>
</linearGradient>
<linearGradient id="paint7_linear_2113_722" x1="43.0448" y1="78.6184" x2="14.0384" y2="116.215" gradientUnits="userSpaceOnUse">
<stop stop-color="#BF621A"/>
<stop offset="1" stop-color="#884910"/>
</linearGradient>
<linearGradient id="paint8_linear_2113_722" x1="17.2837" y1="82.5515" x2="-0.689599" y2="105.85" gradientUnits="userSpaceOnUse">
<stop stop-color="#BF621A"/>
<stop offset="1" stop-color="#884910"/>
</linearGradient>
<linearGradient id="paint9_linear_2113_722" x1="13.0215" y1="103.9" x2="13.0868" y2="29.104" gradientUnits="userSpaceOnUse">
<stop stop-color="#5E5DF8"/>
<stop offset="1" stop-color="#F2AAF0"/>
</linearGradient>
<linearGradient id="paint10_linear_2113_722" x1="62.9391" y1="59.1502" x2="35.5788" y2="86.4686" gradientUnits="userSpaceOnUse">
<stop stop-color="#FFE6C1"/>
<stop offset="0.71" stop-color="#D6772B"/>
</linearGradient>
<linearGradient id="paint11_linear_2113_722" x1="44.5959" y1="58.6012" x2="44.5997" y2="54.2019" gradientUnits="userSpaceOnUse">
<stop stop-color="#FFE6C3"/>
<stop offset="1" stop-color="#FFE6C3" stop-opacity="0"/>
</linearGradient>
<linearGradient id="paint12_linear_2113_722" x1="60.5456" y1="60.3781" x2="60.5373" y2="69.8507" gradientUnits="userSpaceOnUse">
<stop stop-color="white"/>
<stop offset="1" stop-color="white" stop-opacity="0"/>
</linearGradient>
<linearGradient id="paint13_linear_2113_722" x1="65.9808" y1="81.2681" x2="66.4644" y2="94.5831" gradientUnits="userSpaceOnUse">
<stop stop-color="white"/>
<stop offset="1" stop-color="white" stop-opacity="0"/>
</linearGradient>
<linearGradient id="paint14_linear_2113_722" x1="40.2471" y1="58.4331" x2="40.2392" y2="67.5132" gradientUnits="userSpaceOnUse">
<stop stop-color="#40555F"/>
<stop offset="1" stop-color="#152C37"/>
</linearGradient>
<linearGradient id="paint15_linear_2113_722" x1="57.6372" y1="59.3822" x2="57.633" y2="64.211" gradientUnits="userSpaceOnUse">
<stop stop-color="#40555F"/>
<stop offset="1" stop-color="#152C37"/>
</linearGradient>
<radialGradient id="paint16_radial_2113_722" cx="0" cy="0" r="1" gradientUnits="userSpaceOnUse" gradientTransform="translate(53.9633 63.7076) rotate(135.672) scale(4.34035 4.34035)">
<stop stop-color="white"/>
<stop offset="0.19" stop-color="white" stop-opacity="0.59"/>
<stop offset="0.41" stop-color="white" stop-opacity="0.18"/>
<stop offset="1" stop-color="white" stop-opacity="0"/>
</radialGradient>
<radialGradient id="paint17_radial_2113_722" cx="0" cy="0" r="1" gradientUnits="userSpaceOnUse" gradientTransform="translate(58.4061 60.0043) rotate(131.123) scale(4.50866 4.50862)">
<stop stop-color="#76A1B6"/>
<stop offset="0.19" stop-color="#76A1B6" stop-opacity="0.59"/>
<stop offset="0.41" stop-color="#76A1B6" stop-opacity="0.18"/>
<stop offset="1" stop-color="#76A1B6" stop-opacity="0"/>
</radialGradient>
<radialGradient id="paint18_radial_2113_722" cx="0" cy="0" r="1" gradientUnits="userSpaceOnUse" gradientTransform="translate(42.1129 60.0052) rotate(132.481) scale(5.30773 5.19588)">
<stop stop-color="#76A1B6"/>
<stop offset="0.19" stop-color="#76A1B6" stop-opacity="0.59"/>
<stop offset="0.41" stop-color="#76A1B6" stop-opacity="0.18"/>
<stop offset="1" stop-color="#76A1B6" stop-opacity="0"/>
</radialGradient>
<radialGradient id="paint19_radial_2113_722" cx="0" cy="0" r="1" gradientUnits="userSpaceOnUse" gradientTransform="translate(69.1448 73.7076) rotate(152.46) scale(5.85852 5.85871)">
<stop stop-color="white"/>
<stop offset="0.19" stop-color="white" stop-opacity="0.59"/>
<stop offset="0.41" stop-color="white" stop-opacity="0.18"/>
<stop offset="1" stop-color="white" stop-opacity="0"/>
</radialGradient>
</defs>
</svg>
